<?xml version="1.0" encoding="UTF-8"?><svg id="Layer_2" xmlns="http://www.w3.org/2000/svg" viewBox="0 0 59.38 90.63"><defs><style>.cls-1{fill-rule:evenodd;}</style></defs><g id="Layer_1-2"><path class="cls-1" d="M8.5,70.31L.15,88.41c-.36,.79-.02,1.71,.76,2.07,.79,.36,1.71,.02,2.07-.76l1.74-3.78H54.65l1.74,3.78c.36,.78,1.29,1.12,2.07,.76,.78-.36,1.12-1.29,.76-2.07l-6.13-13.27c-.05-.28-.17-.54-.34-.74l-1.88-4.08c2.24-.04,4.38-.95,5.96-2.54,1.62-1.62,2.54-3.83,2.54-6.12V10.57c0-2.8-1.11-5.49-3.09-7.47-1.98-1.98-4.67-3.09-7.47-3.09H10.57C7.76,0,5.07,1.11,3.09,3.09,1.11,5.07,0,7.76,0,10.57V61.65c0,2.3,.91,4.5,2.54,6.12,1.59,1.59,3.72,2.49,5.96,2.54h0Zm.38,6.64l-2.7,5.86H53.21l-2.7-5.86H8.87Zm38.57-6.64H11.94l-1.62,3.52H49.06l-1.62-3.52Zm1.05-3.12h2.23c1.47,0,2.88-.59,3.91-1.62,1.04-1.04,1.62-2.45,1.62-3.91V10.57c0-1.97-.79-3.87-2.18-5.26-1.4-1.39-3.29-2.18-5.26-2.18H10.57c-1.97,0-3.87,.79-5.26,2.18-1.39,1.4-2.18,3.29-2.18,5.26V61.65c0,1.47,.59,2.88,1.62,3.91,1.04,1.04,2.45,1.62,3.91,1.62h10.09v-6.25c0-.86,.7-1.56,1.56-1.56h18.75c.86,0,1.56,.7,1.56,1.56v6.25h7.87Zm-26.61,0v-4.69h15.62v4.69h-15.62Zm-9.16-18.75c-3.57,0-6.46,2.9-6.46,6.46s2.9,6.47,6.46,6.47,6.47-2.9,6.47-6.47-2.9-6.46-6.47-6.46Zm33.94,0c-3.57,0-6.47,2.9-6.47,6.46s2.9,6.47,6.47,6.47,6.46-2.9,6.46-6.47-2.9-6.46-6.46-6.46Zm-33.94,3.12c1.85,0,3.34,1.5,3.34,3.34s-1.5,3.34-3.34,3.34-3.34-1.5-3.34-3.34,1.5-3.34,3.34-3.34Zm33.94,0c1.84,0,3.34,1.5,3.34,3.34s-1.5,3.34-3.34,3.34-3.34-1.5-3.34-3.34,1.5-3.34,3.34-3.34Zm6.46-38.47c0-1.81-.72-3.55-2-4.84-1.29-1.28-3.02-2-4.84-2H13.09c-1.81,0-3.55,.72-4.84,2-1.28,1.29-2,3.02-2,4.84v29.1c0,.86,.7,1.56,1.56,1.56H51.57c.86,0,1.56-.7,1.56-1.56V13.09Zm-3.13,0v27.53H9.38V13.09c0-.98,.39-1.93,1.09-2.63,.7-.7,1.64-1.09,2.63-1.09H46.29c.98,0,1.93,.39,2.63,1.09,.7,.7,1.09,1.64,1.09,2.63h0Z"/></g></svg>