<?xml version="1.0" encoding="UTF-8"?><svg id="Layer_2" xmlns="http://www.w3.org/2000/svg" viewBox="0 0 86.01 93.75"><g id="Layer_1-2"><path d="M7.05,92.19c2.08,1.04,4.39,1.56,6.75,1.56,1.4,0,2.82-.18,4.21-.55,3.77-1,6.97-3.24,9.02-6.31,1.52-2.27,2.27-4.8,2.23-7.34,0,0,0-.01,0-.02V29.67l53.62-11.06V60.02c-3.41-3.76-9.15-5.49-14.88-3.97-3.77,1-6.97,3.24-9.02,6.31-2.09,3.13-2.75,6.75-1.84,10.18,1.53,5.76,7.12,9.49,13.43,9.49,1.37,0,2.78-.18,4.18-.55,6.78-1.8,11.33-7.57,11.25-13.62,0-.02,0-.03,0-.04V1.56c0-.47-.22-.91-.58-1.21-.36-.3-.84-.41-1.3-.32L27.38,11.74c-.73,.15-1.25,.79-1.25,1.53v58.45c-1.07-1.18-2.38-2.19-3.91-2.95-3.3-1.65-7.2-2.01-10.97-1.01-3.77,1-6.97,3.24-9.02,6.31-2.09,3.13-2.75,6.75-1.84,10.18,.91,3.43,3.27,6.25,6.64,7.93h0Zm66.91-13.72c-6.18,1.64-12.37-1.38-13.79-6.72-.68-2.55-.18-5.27,1.41-7.64,1.63-2.44,4.2-4.22,7.23-5.03,1.14-.3,2.28-.45,3.39-.45,4.91,0,9.23,2.81,10.39,7.17,.18,.66,.27,1.33,.29,2v.03h0c.11,4.69-3.53,9.21-8.93,10.64h0ZM82.88,3.48V15.42L29.26,26.48V14.54L82.88,3.48ZM4.84,75.81c1.63-2.44,4.2-4.22,7.23-5.03,1.14-.3,2.29-.45,3.41-.45,1.88,0,3.71,.41,5.36,1.23,2.56,1.28,4.34,3.39,5.02,5.94,.17,.64,.27,1.28,.29,1.93v.05c.06,1.94-.52,3.9-1.7,5.67-1.63,2.44-4.2,4.22-7.23,5.03-3.03,.8-6.15,.53-8.77-.78-2.56-1.28-4.34-3.39-5.02-5.94-.68-2.55-.18-5.27,1.41-7.64h0Z"/></g></svg>