<?xml version="1.0" encoding="UTF-8"?><svg id="Layer_2" xmlns="http://www.w3.org/2000/svg" viewBox="0 0 67.93 21.07"><g id="Layer_1-2"><path d="M47.4,9.2c-.81,6.77-6.58,11.87-13.4,11.87s-12.59-5.1-13.4-11.87c-.13-1.1,.65-2.09,1.75-2.22,1.09-.13,2.09,.65,2.22,1.75,.57,4.76,4.63,8.35,9.43,8.35s8.86-3.59,9.43-8.35c.13-1.1,1.14-1.88,2.22-1.75,1.1,.13,1.88,1.13,1.75,2.22h0ZM11.77,4.57C13.32,1.4,9.28-1.55,6.73,.91,4.18-1.55,.14,1.4,1.69,4.57-1.44,6.24,.11,11,3.61,10.5c.61,3.49,5.62,3.49,6.23,0,3.51,.49,5.05-4.26,1.92-5.92h0Zm54.47,0c1.55-3.18-2.49-6.12-5.04-3.66-2.55-2.46-6.59,.48-5.04,3.66-3.13,1.66-1.58,6.42,1.92,5.92,.61,3.49,5.62,3.49,6.23,0,3.51,.49,5.05-4.26,1.92-5.92h0Z"/></g></svg>