<?xml version="1.0" encoding="UTF-8"?><svg id="Layer_2" xmlns="http://www.w3.org/2000/svg" viewBox="0 0 64.67 84.1"><defs><style>.cls-1{fill-rule:evenodd;}</style></defs><g id="Layer_1-2"><path class="cls-1" d="M37.65,2.55l-3,6.63c-.38,.84,.24,1.8,1.16,1.8h1.33l-4.8,8.02-4.8-8.02h1.33c.92,0,1.54-.96,1.16-1.8l-3-6.63h10.62Zm-10.76,5.88h-1.6c-.99,0-1.6,1.08-1.09,1.93l7.05,11.78c.49,.83,1.69,.82,2.19,0l7.05-11.78c.51-.85-.11-1.93-1.09-1.93h-1.6l3-6.63c.38-.84-.24-1.8-1.16-1.8h-14.57c-.92,0-1.54,.96-1.16,1.8l3,6.63h0Zm-22.72-.11h1.35c1.01,0,1.62-1.13,1.07-1.97l-2.2-3.36h4.15l3.44,5.83h-2.33c-.97,0-1.58,1.04-1.12,1.89l3.26,5.93L4.17,8.32h0Zm13.85,18.27c.96,0,1.59-1.03,1.12-1.89l-7.33-13.34h2.41c.99,0,1.6-1.08,1.1-1.92L10.36,1.07c-.23-.39-.65-.63-1.1-.63H2.04C1.03,.44,.42,1.57,.97,2.41l2.2,3.36H1.28C.17,5.77-.41,7.09,.34,7.91L17.08,26.18c.25,.27,.59,.41,.94,.41h0Zm34.86-9.95l3.26-5.93c.46-.84-.14-1.89-1.12-1.89h-2.33l3.44-5.83h4.15l-2.19,3.36c-.55,.85,.06,1.97,1.06,1.97h1.35l-7.62,8.31h0Zm11.68-10.1c-.2-.46-.66-.76-1.16-.76h-1.89l2.19-3.36c.55-.85-.06-1.97-1.07-1.97h-7.23c-.45,0-.87,.24-1.1,.63l-4.95,8.37c-.5,.85,.11,1.92,1.1,1.92h2.41l-7.34,13.34c-.47,.85,.16,1.89,1.12,1.89,.35,0,.69-.14,.94-.41L64.34,7.91c.34-.37,.43-.91,.23-1.37h0Zm-8.46,75.02c-2.09,0-3.89-1.31-4.6-3.3l-8.07-23.01c-.44-1.24-.62-2.33-.62-3.64v-4.83c0-1.74-.28-3.24-.9-4.86l-1.9-4.92c-.22-.58,.2-1.19,.82-1.19h5.47c.36,0,.64,.18,.79,.51l2.89,6.27c.7,1.52,1.01,2.94,1.01,4.61v3.95c0,1.95,.35,3.61,1.12,5.4l5.18,11.92c.29,.66,1.04,.94,1.68,.66,.64-.28,.94-1.03,.66-1.68l-1.76-4.04h3.08v13.3c0,2.72-2.22,4.86-4.86,4.86h0ZM8.57,49.59h2.56c0,2.29,.07,3.66-.91,5.93l-2.32,5.33H3.71v-6.39c0-2.68,2.18-4.86,4.86-4.86h0Zm5.11,1.54c0,1.95-.35,3.61-1.12,5.4l-5.18,11.92c-.21,.48-.68,.77-1.17,.77-.9,0-1.54-.93-1.17-1.78l1.76-4.04H3.71v13.3c0,2.68,2.18,4.86,4.86,4.86,2.09,0,3.89-1.31,4.6-3.3l8.07-23.01c.44-1.24,.62-2.33,.62-3.64v-4.83c0-1.74,.28-3.24,.9-4.86l1.89-4.92c.22-.58-.2-1.19-.81-1.19h-5.47c-.36,0-.64,.18-.79,.51l-2.9,6.27c-.7,1.52-1.01,2.94-1.01,4.61v3.95h0Zm8.24,9.89l-6.35,18.1c-.4,1-.7,1.61-1.41,2.42H50.53c-.62-.71-1.08-1.5-1.41-2.42l-6.35-18.1c-6.33,4.18-14.52,4.18-20.85,0h0Zm21.54-27.78c-6.24-5.81-15.99-5.81-22.24,0h2.63c2.4,0,4.06,2.4,3.19,4.65l-1.89,4.92c-.52,1.33-.73,2.52-.73,3.95v4.83c0,2.77-.75,4.44-1.62,6.94,5.69,4.11,13.41,4.11,19.11,0-.87-2.49-1.63-4.18-1.63-6.94v-4.83c0-1.43-.22-2.61-.73-3.95l-1.89-4.92c-.86-2.24,.79-4.65,3.19-4.65h2.62Zm17.51,21.21c0-2.68-2.18-4.86-4.86-4.86h-2.56c0,2.29-.07,3.66,.91,5.93l2.32,5.33h4.19v-6.39h0Zm-4.86-7.41c4.08,0,7.41,3.32,7.41,7.41v22.24c0,4.14-3.37,7.41-7.41,7.41H8.57c-4.09,0-7.41-3.32-7.41-7.41v-22.24c0-4.09,3.32-7.41,7.41-7.41h2.56c.01-2,.4-3.71,1.24-5.54l2.9-6.27c.46-1.01,1.35-1.7,2.4-1.91,3.61-4.44,8.93-6.97,14.67-6.97s11.06,2.54,14.67,6.97c1.05,.22,1.93,.91,2.4,1.91l2.89,6.27c.84,1.83,1.23,3.54,1.25,5.54h2.56Z"/></g></svg>